<?xml version="1.0" encoding="UTF-8" standalone="no"?>
<!DOCTYPE svg PUBLIC "-//W3C//DTD SVG 1.1//EN" "http://www.w3.org/Graphics/SVG/1.1/DTD/svg11.dtd">
<svg height="100%" style="fill-rule:evenodd;clip-rule:evenodd;stroke-linejoin:round;stroke-miterlimit:2;" version="1.1"
     viewBox="0 0 2952 686" width="100%"
     xml:space="preserve" xmlns="http://www.w3.org/2000/svg"
>
    <g id="Logo" transform="matrix(1.20934,0,0,1,-33.861532,-833)">
        <rect height="686" style="fill:none;" width="2441" x="28" y="833"/>
      <g transform="matrix(0.826897,0,0,1,4.846883,0)">
            <g transform="matrix(29.281989,0,0,11.943655,-3142.995143,226.929934)">
                <path
                  d="M117.786,107.313C115.939,107.313 114.34,106.436 112.99,104.683C111.64,102.929 110.603,100.433 109.879,97.194C109.155,93.956 108.794,90.122 108.794,85.694L108.794,52L113.766,52L113.766,85.694C113.766,87.753 113.934,89.538 114.27,91.049C114.606,92.559 115.078,93.718 115.686,94.525C116.295,95.332 117.015,95.735 117.848,95.735C118.685,95.735 119.412,95.332 120.028,94.525C120.644,93.718 121.116,92.559 121.444,91.049C121.772,89.538 121.936,87.753 121.936,85.694L121.936,52L126.908,52L126.908,85.694C126.908,90.122 126.541,93.956 125.807,97.194C125.073,100.433 124.025,102.929 122.663,104.683C121.3,106.436 119.674,107.313 117.786,107.313Z"
                  style="fill:rgb(28,66,64);fill-rule:nonzero;"/>
            </g>
        <g transform="matrix(4.166667,0,0,4.166667,43.962667,823)">
                <path
                  d="M386,51C386,51 404.483,68.111 403,84C401.517,99.889 397.78,119.648 367,127C367,127 349,119.472 349,103C349,86.528 382.096,72.965 385,62C387.426,52.837 386,51 386,51Z"
                  style="fill:rgb(28,66,64);"/>
            </g>
        <g transform="matrix(72.419021,0,0,78.320945,-4193.3724,-3374.15869)">
                <path
                  d="M86.658,62.298L83.367,53.898L85.412,53.898L87.666,60.137L89.905,53.898L91.839,53.898L88.616,62.298L86.658,62.298Z"
                  style="fill:rgb(28,66,64);"/>
            </g>
        <g transform="matrix(4.166667,0,0,4.166667,43.962667,823)">
                <path
                  d="M361,6C404.601,6 440,41.175 440,84.5C440,127.825 404.601,163 361,163C317.399,163 282,127.825 282,84.5C282,41.175 317.399,6 361,6ZM361,36C388.044,36 410,57.956 410,85C410,112.044 388.044,134 361,134C333.956,134 312,112.044 312,85C312,57.956 333.956,36 361,36Z"
                  style="fill:rgb(28,66,64);"/>
            </g>
        <g transform="matrix(4.166667,0,0,4.166667,43.962667,823)">
                <path
                  d="M152,6L152,164L183,164L183,32L208,32C208,32 240,30.522 240,55C240,79.478 209,77 209,77L183,77.016L183,104.933L213,104.933C213,104.933 273,108.775 273,56C273,0.225 216,6 216,6L152,6Z"
                  style="fill:rgb(28,66,64);"/>
            </g>
        </g>
      <g transform="matrix(3.445404,0,0,4.166667,41.199481,823)">
            <path
              d="M386,51C386,51 402.775,65.972 400.84,81.84C398.876,97.942 390.34,114.848 368.92,120.04C368.92,120.04 355,117.072 355,100.6C355,84.128 382.096,72.965 385,62C387.426,52.837 386,51 386,51Z"
              style="fill:rgb(218,222,20);"/>
        </g>
      <g transform="matrix(8.663909,0,0,10.477616,-19325.623357,-2314.383054)">
            <g transform="matrix(50,0,0,50,2463.42656,336.894058)">
                <path
                  d="M0.316,0.012C0.252,0.012 0.199,0.001 0.157,-0.022C0.114,-0.046 0.084,-0.078 0.067,-0.12C0.049,-0.163 0.045,-0.213 0.054,-0.271L0.125,-0.7L0.31,-0.7L0.239,-0.271C0.235,-0.247 0.236,-0.227 0.241,-0.21C0.246,-0.193 0.256,-0.181 0.27,-0.173C0.284,-0.164 0.302,-0.16 0.323,-0.16C0.349,-0.16 0.372,-0.165 0.393,-0.174C0.414,-0.183 0.431,-0.196 0.444,-0.213C0.457,-0.23 0.466,-0.249 0.469,-0.271L0.54,-0.7L0.725,-0.7L0.654,-0.271C0.644,-0.211 0.624,-0.16 0.595,-0.118C0.565,-0.075 0.527,-0.043 0.48,-0.021C0.433,0.001 0.378,0.012 0.316,0.012Z"
                  style="fill:rgb(0,154,110);fill-rule:nonzero;"/>
            </g>
        <g transform="matrix(50,0,0,50,2498.42656,336.894058)">
                <path d="M0.018,-0L0.135,-0.7L0.32,-0.7L0.203,-0L0.018,-0Z"
                      style="fill:rgb(0,154,110);fill-rule:nonzero;"/>
            </g>
        <g transform="matrix(50,0,0,50,2513.67656,336.894058)">
            </g>
        </g>
    </g>
</svg>
